<svg width="356" height="319" viewBox="0 0 356 319" fill="none" xmlns="http://www.w3.org/2000/svg">
<rect x="2" y="2" width="351.288" height="314.318" fill="#0B0F0D" stroke="black" stroke-width="4"/>
<rect x="39" y="34" width="278.272" height="249.32" fill="#203123"/>
<path d="M202.899 232H182.909C182.33 232 182.04 231.71 182.04 231.131L182.388 108.843C182.388 108.379 182.619 108.147 183.083 108.147H217.327C228.22 108.147 236.825 111.479 243.141 118.143C249.514 124.748 252.701 133.758 252.701 145.173C252.701 153.517 251.05 160.788 247.747 166.988C244.386 173.13 240.041 177.882 234.71 181.242C229.379 184.603 223.585 186.283 217.327 186.283H203.769V231.131C203.769 231.71 203.479 232 202.899 232ZM217.327 129.268L203.769 129.441V164.729H217.327C221.093 164.729 224.367 162.932 227.148 159.34C229.93 155.689 231.32 150.967 231.32 145.173C231.32 140.537 230.075 136.742 227.583 133.787C225.091 130.774 221.673 129.268 217.327 129.268Z" fill="white"/>
<path d="M141.193 231.826L173.091 232C173.67 232 173.96 231.71 173.96 231.131L173.612 108.843C173.612 108.379 173.381 108.147 172.917 108.147L139.629 107.974C133.023 107.8 127.055 109.306 121.725 112.493C116.336 115.68 112.048 119.997 108.861 125.443C105.617 130.832 103.994 136.8 103.994 143.348V194.453C103.994 201.29 105.646 207.548 108.948 213.227C112.309 218.847 116.771 223.338 122.333 226.698C127.896 230.001 134.182 231.71 141.193 231.826ZM139.629 129.268L152.058 129.441L152.231 210.098H141.193C136.79 210.098 133.081 208.562 130.068 205.491C127.055 202.42 125.549 198.741 125.549 194.453V143.174C125.549 139.408 126.939 136.134 129.721 133.353C132.502 130.513 135.805 129.152 139.629 129.268Z" fill="white"/>
</svg>
