<svg width="508" height="300" viewBox="0 0 508 300" fill="none" xmlns="http://www.w3.org/2000/svg">
<g clip-path="url(#clip0_291_838)">
<rect width="508" height="300" fill="#0B0F0D"/>
<rect x="37" y="46" width="440" height="207" fill="#203123"/>
<path d="M272.809 193H259.332C258.941 193 258.746 192.805 258.746 192.414L258.98 109.973C258.98 109.66 259.137 109.504 259.449 109.504H282.535C289.879 109.504 295.68 111.75 299.938 116.242C304.234 120.695 306.383 126.77 306.383 134.465C306.383 140.09 305.27 144.992 303.043 149.172C300.777 153.312 297.848 156.516 294.254 158.781C290.66 161.047 286.754 162.18 282.535 162.18H273.395V192.414C273.395 192.805 273.199 193 272.809 193ZM282.535 123.742L273.395 123.859V147.648H282.535C285.074 147.648 287.281 146.438 289.156 144.016C291.031 141.555 291.969 138.371 291.969 134.465C291.969 131.34 291.129 128.781 289.449 126.789C287.77 124.758 285.465 123.742 282.535 123.742Z" fill="white"/>
<path d="M233.164 192.883L254.668 193C255.059 193 255.254 192.805 255.254 192.414L255.02 109.973C255.02 109.66 254.863 109.504 254.551 109.504L232.109 109.387C227.656 109.27 223.633 110.285 220.039 112.434C216.406 114.582 213.516 117.492 211.367 121.164C209.18 124.797 208.086 128.82 208.086 133.234V167.688C208.086 172.297 209.199 176.516 211.426 180.344C213.691 184.133 216.699 187.16 220.449 189.426C224.199 191.652 228.438 192.805 233.164 192.883ZM232.109 123.742L240.488 123.859L240.605 178.234H233.164C230.195 178.234 227.695 177.199 225.664 175.129C223.633 173.059 222.617 170.578 222.617 167.688V133.117C222.617 130.578 223.555 128.371 225.43 126.496C227.305 124.582 229.531 123.664 232.109 123.742Z" fill="white"/>
</g>
<defs>
<clipPath id="clip0_291_838">
<rect width="508" height="300" fill="white"/>
</clipPath>
</defs>
</svg>
