<svg width="356" height="319" viewBox="0 0 356 319" fill="none" xmlns="http://www.w3.org/2000/svg">
<rect x="2" y="2" width="351.288" height="314.318" fill="white" stroke="black" stroke-width="4"/>
<path d="M138.908 190.852L138.777 190.999C145.217 208.171 128.604 215.316 121.417 196.685L121.294 196.759C122.738 205.25 121.557 215.759 122.762 224.595C123.394 229.182 125.658 241.537 127.193 245.524C127.726 246.911 128.202 247.419 129.703 247.764C133.583 248.658 135.774 243.703 139.9 242.44C142.821 241.545 146.808 242.382 148.687 241.791C149.688 241.48 151.542 239.199 152.535 238.403C154.733 236.647 156.956 235.294 159.803 235.031C159.861 235.031 159.926 235.113 159.984 235.105C162.748 234.875 167.925 235.425 167.687 230.88C167.622 229.6 156.924 212.182 155.373 210.099C150.459 203.511 143.756 197.357 138.9 190.852H138.908Z" fill="#FFAB66" stroke="#458BB9" stroke-width="4" stroke-linecap="round" stroke-linejoin="round"/>
<path d="M121.435 196.684C128.621 215.316 145.234 208.17 138.794 190.999L138.926 190.851C135.021 185.617 132.026 169.126 127.35 166.025C121.747 162.317 114.896 164.909 113.067 171.366C111.73 176.067 119.63 190.269 121.098 195.872L121.164 195.954C121.263 196.192 121.353 196.438 121.443 196.684H121.435Z" fill="#FFAB66" stroke="#458BB9" stroke-width="4" stroke-linecap="round" stroke-linejoin="round"/>
<path d="M120.918 168.719C118.548 169.227 117.038 171.598 117.104 173.928C117.136 175.085 121.919 187.375 122.69 188.327C125.792 192.117 131.657 189.959 131.616 185.102C131.6 183.708 126.899 171.68 125.98 170.581C124.725 169.096 122.855 168.309 120.918 168.727V168.719Z" fill="#FDFDFD" stroke="#458BB9" stroke-width="4" stroke-linecap="round" stroke-linejoin="round"/>
<path d="M147.437 237.848L137.01 211.422" stroke="#458BB9" stroke-width="4" stroke-linecap="round" stroke-linejoin="round"/>
<path d="M158.174 234.495L142.233 206.855" stroke="#458BB9" stroke-width="4" stroke-linecap="round" stroke-linejoin="round"/>
<path d="M137.195 242.768L129.927 211.551" stroke="#458BB9" stroke-width="4" stroke-linecap="round" stroke-linejoin="round"/>
<path d="M159.84 235.031C159.897 235.031 159.963 235.113 160.02 235.105C162.785 234.875 167.962 235.425 167.724 230.879C167.658 229.6 156.96 212.182 155.41 210.098C150.496 203.51 143.793 197.357 138.936 190.851C135.031 185.617 132.037 169.126 127.361 166.025C121.757 162.317 114.907 164.909 113.078 171.366C111.74 176.067 119.641 190.269 121.109 195.872C121.191 196.176 121.281 196.438 121.331 196.758C122.775 205.249 121.593 215.759 122.799 224.595C123.431 229.181 125.695 241.537 127.229 245.524C127.763 246.91 128.238 247.419 129.74 247.764C133.62 248.658 135.811 243.703 139.937 242.439C142.858 241.545 146.845 242.382 148.724 241.791C149.724 241.479 151.579 239.198 152.571 238.403C154.77 236.647 156.993 235.293 159.84 235.031Z" stroke="#458BB9" stroke-width="4" stroke-linecap="round" stroke-linejoin="round"/>
<path d="M138.39 190.121C138.53 190.408 138.653 190.704 138.768 191.007C145.208 208.179 128.595 215.324 121.408 196.693C121.31 196.447 121.219 196.2 121.129 195.962L121.104 195.905" stroke="#458BB9" stroke-width="4" stroke-linecap="round" stroke-linejoin="round"/>
<path d="M71.8088 190.852L71.9401 190.999C65.5 208.171 82.1129 215.316 89.2996 196.685L89.4226 196.759C87.9787 205.25 89.1601 215.759 87.9542 224.595C87.3224 229.182 85.0581 241.537 83.524 245.524C82.9908 246.911 82.5149 247.419 81.0136 247.764C77.1331 248.658 74.9427 243.703 70.8161 242.44C67.8955 241.545 63.9084 242.382 62.0297 241.791C61.0288 241.48 59.1747 239.199 58.182 238.403C55.9834 236.647 53.7601 235.294 50.9134 235.031C50.8559 235.031 50.7903 235.113 50.7329 235.105C47.9682 234.875 42.7915 235.425 43.0294 230.88C43.095 229.6 53.793 212.182 55.3435 210.099C60.2577 203.511 66.9603 197.357 71.817 190.852H71.8088Z" fill="#FFAB66" stroke="#458BB9" stroke-width="4" stroke-linecap="round" stroke-linejoin="round"/>
<path d="M89.303 196.684C82.1164 215.316 65.5034 208.17 71.9435 190.999L71.8123 190.851C75.7174 185.617 78.7118 169.126 83.388 166.025C88.9913 162.317 95.8416 164.909 97.671 171.366C99.0083 176.067 91.1079 190.269 89.6394 195.872L89.5738 195.954C89.4753 196.192 89.3851 196.438 89.2949 196.684H89.303Z" fill="#FFAB66" stroke="#458BB9" stroke-width="4" stroke-linecap="round" stroke-linejoin="round"/>
<path d="M89.7851 168.719C92.156 169.227 93.6655 171.598 93.5999 173.928C93.5671 175.085 88.7842 187.375 88.013 188.327C84.9119 192.117 79.0461 189.959 79.0871 185.102C79.1035 183.708 83.8044 171.68 84.7232 170.581C85.9784 169.096 87.849 168.309 89.7851 168.727V168.719Z" fill="#FDFDFD" stroke="#458BB9" stroke-width="4" stroke-linecap="round" stroke-linejoin="round"/>
<path d="M63.2764 237.848L73.7036 211.422" stroke="#458BB9" stroke-width="4" stroke-linecap="round" stroke-linejoin="round"/>
<path d="M52.5615 234.495L68.5018 206.855" stroke="#458BB9" stroke-width="4" stroke-linecap="round" stroke-linejoin="round"/>
<path d="M73.542 242.768L80.8107 211.551" stroke="#458BB9" stroke-width="4" stroke-linecap="round" stroke-linejoin="round"/>
<path d="M50.8919 235.031C50.8345 235.031 50.7689 235.113 50.7114 235.105C47.9467 234.875 42.77 235.425 43.0079 230.879C43.0736 229.6 53.7715 212.182 55.322 210.098C60.2362 203.51 66.9388 197.357 71.7955 190.851C75.7006 185.617 78.695 169.126 83.3713 166.025C88.9746 162.317 95.8248 164.909 97.6543 171.366C98.9915 176.067 91.0912 190.269 89.6227 195.872C89.5406 196.176 89.4504 196.438 89.4011 196.758C87.9572 205.249 89.1386 215.759 87.9327 224.595C87.3009 229.181 85.0366 241.537 83.5025 245.524C82.9693 246.91 82.4934 247.419 80.9921 247.764C77.1116 248.658 74.9212 243.703 70.7946 242.439C67.874 241.545 63.887 242.382 62.0083 241.791C61.0074 241.479 59.1533 239.198 58.1606 238.403C55.962 236.647 53.7387 235.293 50.8919 235.031Z" stroke="#458BB9" stroke-width="4" stroke-linecap="round" stroke-linejoin="round"/>
<path d="M72.3219 190.121C72.1824 190.408 72.0594 190.704 71.9445 191.007C65.5044 208.179 82.1174 215.324 89.304 196.693C89.4024 196.447 89.4927 196.2 89.583 195.962L89.6076 195.905" stroke="#458BB9" stroke-width="4" stroke-linecap="round" stroke-linejoin="round"/>
<path d="M105.396 203.986C132.627 203.986 154.702 181.944 154.702 154.753C154.702 127.562 132.627 105.52 105.396 105.52C78.1657 105.52 56.0908 127.562 56.0908 154.753C56.0908 181.944 78.1657 203.986 105.396 203.986Z" fill="#B5D9FC"/>
<path d="M111.854 57.7411L150.249 134.122C152.382 138.306 148.936 143.073 143.767 143.073H67.0607C61.8922 143.073 58.5286 138.306 60.5796 134.122L98.8919 57.7411C101.353 52.753 109.311 52.753 111.772 57.7411H111.854Z" fill="#B5D9FC"/>
<path d="M151.861 128.004C152.066 130.293 151.885 134.248 151.77 136.652C151.459 143.428 150.072 148.605 142.82 151.222C139.259 152.502 118.315 152.289 115.369 150.098C111.161 146.972 107.748 134.863 102.399 140.762C99.0601 144.437 98.7155 149.401 92.8907 151.444C91.1351 152.059 73.0618 152.133 70.6253 151.788C61.9209 150.574 59.5253 144.544 59.1233 136.873C58.9839 134.141 58.8854 130.712 59.1233 128.013C59.6812 121.654 62.5608 116.363 69.5423 115.477L141.524 115.649C148.259 116.699 151.278 121.613 151.852 128.013L151.861 128.004Z" fill="#94CBF7" stroke="#FFAB66" stroke-width="7.35" stroke-linecap="round" stroke-linejoin="round"/>
<path d="M68.8951 119.385L142.599 119.688C148.219 121.584 148.022 127.13 148.178 131.921C148.391 138.533 148.514 146.524 140.22 148.001C138.35 148.337 121.819 148.395 119.899 148.091C112.786 146.959 112.778 134.587 104.771 135.383C97.9206 136.064 97.6745 146.196 91.8004 147.96C90.2663 148.419 70.5768 148.157 69.1083 147.615C67.2625 146.943 65.9744 146.024 64.7438 144.457C61.7904 140.707 60.6665 119.869 68.8951 119.385Z" fill="#D0E6F7" stroke="#458BB9" stroke-width="7.35" stroke-linecap="round" stroke-linejoin="round"/>
<path d="M84.7625 122.629C85.0332 122.564 88.8808 122.564 89.0859 122.629C89.1843 122.777 89.6274 123.097 89.6274 123.171C89.6602 124.623 71.0783 141.04 69.1996 143.813C67.4767 144.19 66.3774 142.442 66.7138 140.892C66.9845 139.637 83.5155 122.941 84.7625 122.629Z" fill="#FEFEFE"/>
<path d="M72.8816 122.623C73.3082 122.517 77.9024 122.484 77.9599 122.951L65.7442 134.733C65.3176 134.544 65.293 130.598 65.416 130.089C65.5391 129.58 72.3648 122.763 72.8734 122.631L72.8816 122.623Z" fill="#FEFEFE"/>
<path d="M96.0479 164.857C97.2784 165.743 100.076 167.498 104.022 167.802C105.45 167.909 106.779 167.802 107.985 167.58C111.594 166.9 114.08 165.103 114.868 164.504" stroke="#254B60" stroke-width="2" stroke-linecap="round" stroke-linejoin="round"/>
<path d="M221.65 126.883C222.595 133.372 221.902 139.483 219.886 143.326C216.736 148.933 207.412 152.902 197.08 155.359L191.41 121.78C190.339 122.095 189.079 122.284 188.134 122.473C187.189 120.268 186.874 118.504 186.685 117.433C186.559 116.866 186.307 115.543 186.37 113.212C189.079 112.645 193.804 111.637 194.812 111.511C202.12 110.251 208.924 110.629 213.208 113.086C216.673 115.165 220.705 120.583 221.65 126.883ZM210.94 127.513C210.436 124.426 208.357 122.41 207.412 121.78C205.837 120.898 203.569 120.52 201.427 120.457C202.813 128.332 203.821 134.065 205.459 142.444C206.782 141.814 209.995 141.247 210.688 138.664C211.57 136.27 211.948 132.994 210.94 127.513ZM226.601 143.578C226.412 139.546 226.349 136.27 226.16 133.561C226.16 133.057 226.097 132.427 226.097 131.86C225.908 128.458 224.648 113.464 224.27 109.432C228.05 108.361 233.594 108.487 235.61 108.802C236.051 111.889 235.736 114.976 236.051 118.441C236.366 122.221 236.429 128.206 236.807 134.002C237.059 138.034 237.5 148.177 237.815 152.272L226.853 152.524L226.601 143.578ZM272.787 135.955C272.661 140.302 272.598 144.019 272.598 147.169C272.598 149.626 272.724 152.776 272.787 154.666C270.834 155.863 269.133 156.745 267.432 157.438C265.416 158.194 263.274 158.509 261.069 158.509C254.832 158.509 249.54 155.737 245.382 150.004C243.492 147.358 241.791 142.066 241.791 137.467C241.791 130.348 241.854 125.434 245.004 118.441C248.784 110.566 256.344 105.589 261.762 105.589C269.007 105.589 274.551 108.928 275.307 115.354L275.622 119.638C271.716 120.709 267.684 122.536 263.778 121.969C264.282 119.638 264.282 118.126 263.652 116.11C263.463 115.606 262.581 115.354 261.699 115.354C260.061 115.354 256.407 117.244 254.58 122.599C252.816 127.639 252.564 131.608 252.564 136.333C252.753 143.704 257.73 148.618 261.888 148.366H262.014V147.106C262.014 143.893 262.014 142.57 262.203 136.711C262.014 136.711 262.014 136.774 261.699 136.774L256.407 137.215L256.533 127.828C264.093 126.82 267.306 127.576 277.701 126.127C278.016 129.718 278.205 131.419 278.142 132.427V135.955H272.787ZM284.987 143.578C284.798 139.546 284.735 136.27 284.546 133.561C284.546 133.057 284.483 132.427 284.483 131.86C284.294 128.458 283.034 113.464 282.656 109.432C286.436 108.361 291.98 108.487 293.996 108.802C294.437 111.889 294.122 114.976 294.437 118.441C294.752 122.221 294.815 128.206 295.193 134.002C295.445 138.034 295.886 148.177 296.201 152.272L285.239 152.524L284.987 143.578Z" fill="#254B60"/>
<path d="M222.129 188.664C223.074 195.153 222.381 201.264 220.365 205.107C217.215 210.714 207.891 214.683 197.559 217.14L191.889 183.561C190.818 183.876 189.558 184.065 188.613 184.254C187.668 182.049 187.353 180.285 187.164 179.214C187.038 178.647 186.786 177.324 186.849 174.993C189.558 174.426 194.283 173.418 195.291 173.292C202.599 172.032 209.403 172.41 213.687 174.867C217.152 176.946 221.184 182.364 222.129 188.664ZM211.419 189.294C210.915 186.207 208.836 184.191 207.891 183.561C206.316 182.679 204.048 182.301 201.906 182.238C203.292 190.113 204.3 195.846 205.938 204.225C207.261 203.595 210.474 203.028 211.167 200.445C212.049 198.051 212.427 194.775 211.419 189.294ZM227.081 205.359C226.892 201.327 226.829 198.051 226.64 195.342C226.64 194.838 226.577 194.208 226.577 193.641C226.388 190.239 225.128 175.245 224.75 171.213C228.53 170.142 234.074 170.268 236.09 170.583C236.531 173.67 236.216 176.757 236.531 180.222C236.846 184.002 236.909 189.987 237.287 195.783C237.539 199.815 237.98 209.958 238.295 214.053L227.333 214.305L227.081 205.359ZM276.703 173.922L275.317 177.198C274.435 179.34 273.112 183.75 272.041 186.648C270.151 191.625 268.828 195.531 266.56 201.39C265.426 204.288 262.717 211.848 260.134 217.455C258.811 217.455 253.33 216.636 252.259 216.888L245.455 198.618C244.825 196.665 241.927 186.144 238.525 174.426C241.108 172.41 244.51 171.591 248.731 171.402L249.802 175.245C251.629 181.356 252.574 186.711 254.338 192.822C254.464 193.389 255.598 197.106 256.102 198.555L256.984 201.138C258.307 197.736 259.441 193.767 261.142 188.79C262.465 184.821 264.292 178.458 265.363 174.111C265.489 173.544 266.371 171.402 266.623 170.772C270.844 171.087 273.679 171.906 275.002 173.04L276.703 173.922ZM305.095 209.139C299.866 210.21 287.266 213.108 279.58 216.51L279.139 196.728C277.816 196.791 275.296 197.232 275.296 197.232L275.233 188.097C275.863 188.097 278.383 187.719 278.95 187.656C278.887 182.049 278.698 175.182 278.635 170.079C279.832 170.142 284.494 169.953 285.754 169.953C286.825 169.953 294.7 169.512 303.772 168.945C304.717 171.402 304.528 172.851 304.528 173.859C304.528 174.615 304.528 175.182 304.024 177.891C298.921 178.332 298.165 178.332 297.535 178.395C294.763 178.584 294.133 178.71 289.534 178.899C289.534 181.419 289.534 184.002 289.597 186.459C293.314 185.955 299.425 185.199 302.764 184.506C303.394 186.711 303.835 190.176 303.394 193.452C295.078 194.964 294.133 195.216 289.786 195.72L289.975 202.776C293.881 201.705 299.299 200.508 304.528 199.689C305.347 202.65 305.284 207.186 305.095 209.139Z" fill="#254B60"/>
</svg>
