<svg width="508" height="300" viewBox="0 0 508 300" fill="none" xmlns="http://www.w3.org/2000/svg">
<g clip-path="url(#clip0_291_842)">
<rect width="508" height="300" fill="url(#paint0_linear_291_842)"/>
<path d="M225.75 118.065C226.725 124.76 226.01 131.065 223.93 135.03C220.68 140.815 211.06 144.91 200.4 147.445L194.55 112.8C193.445 113.125 192.145 113.32 191.17 113.515C190.195 111.24 189.87 109.42 189.675 108.315C189.545 107.73 189.285 106.365 189.35 103.96C192.145 103.375 197.02 102.335 198.06 102.205C205.6 100.905 212.62 101.295 217.04 103.83C220.615 105.975 224.775 111.565 225.75 118.065ZM214.7 118.715C214.18 115.53 212.035 113.45 211.06 112.8C209.435 111.89 207.095 111.5 204.885 111.435C206.315 119.56 207.355 125.475 209.045 134.12C210.41 133.47 213.725 132.885 214.44 130.22C215.35 127.75 215.74 124.37 214.7 118.715ZM230.859 135.29C230.664 131.13 230.599 127.75 230.404 124.955C230.404 124.435 230.339 123.785 230.339 123.2C230.144 119.69 228.844 104.22 228.454 100.06C232.354 98.955 238.074 99.085 240.154 99.41C240.609 102.595 240.284 105.78 240.609 109.355C240.934 113.255 240.999 119.43 241.389 125.41C241.649 129.57 242.104 140.035 242.429 144.26L231.119 144.52L230.859 135.29ZM278.511 127.425C278.381 131.91 278.316 135.745 278.316 138.995C278.316 141.53 278.446 144.78 278.511 146.73C276.496 147.965 274.741 148.875 272.986 149.59C270.906 150.37 268.696 150.695 266.421 150.695C259.986 150.695 254.526 147.835 250.236 141.92C248.286 139.19 246.531 133.73 246.531 128.985C246.531 121.64 246.596 116.57 249.846 109.355C253.746 101.23 261.546 96.095 267.136 96.095C274.611 96.095 280.331 99.54 281.111 106.17L281.436 110.59C277.406 111.695 273.246 113.58 269.216 112.995C269.736 110.59 269.736 109.03 269.086 106.95C268.891 106.43 267.981 106.17 267.071 106.17C265.381 106.17 261.611 108.12 259.726 113.645C257.906 118.845 257.646 122.94 257.646 127.815C257.841 135.42 262.976 140.49 267.266 140.23H267.396V138.93C267.396 135.615 267.396 134.25 267.591 128.205C267.396 128.205 267.396 128.27 267.071 128.27L261.611 128.725L261.741 119.04C269.541 118 272.856 118.78 283.581 117.285C283.906 120.99 284.101 122.745 284.036 123.785V127.425H278.511ZM291.098 135.29C290.903 131.13 290.838 127.75 290.643 124.955C290.643 124.435 290.578 123.785 290.578 123.2C290.383 119.69 289.083 104.22 288.693 100.06C292.593 98.955 298.313 99.085 300.393 99.41C300.848 102.595 300.523 105.78 300.848 109.355C301.173 113.255 301.238 119.43 301.628 125.41C301.888 129.57 302.343 140.035 302.668 144.26L291.358 144.52L291.098 135.29Z" fill="#254B60"/>
<path d="M225.75 170.065C226.725 176.76 226.01 183.065 223.93 187.03C220.68 192.815 211.06 196.91 200.4 199.445L194.55 164.8C193.445 165.125 192.145 165.32 191.17 165.515C190.195 163.24 189.87 161.42 189.675 160.315C189.545 159.73 189.285 158.365 189.35 155.96C192.145 155.375 197.02 154.335 198.06 154.205C205.6 152.905 212.62 153.295 217.04 155.83C220.615 157.975 224.775 163.565 225.75 170.065ZM214.7 170.715C214.18 167.53 212.035 165.45 211.06 164.8C209.435 163.89 207.095 163.5 204.885 163.435C206.315 171.56 207.355 177.475 209.045 186.12C210.41 185.47 213.725 184.885 214.44 182.22C215.35 179.75 215.74 176.37 214.7 170.715ZM230.859 187.29C230.664 183.13 230.599 179.75 230.404 176.955C230.404 176.435 230.339 175.785 230.339 175.2C230.144 171.69 228.844 156.22 228.454 152.06C232.354 150.955 238.074 151.085 240.154 151.41C240.609 154.595 240.284 157.78 240.609 161.355C240.934 165.255 240.999 171.43 241.389 177.41C241.649 181.57 242.104 192.035 242.429 196.26L231.119 196.52L230.859 187.29ZM282.056 154.855L280.626 158.235C279.716 160.445 278.351 164.995 277.246 167.985C275.296 173.12 273.931 177.15 271.591 183.195C270.421 186.185 267.626 193.985 264.961 199.77C263.596 199.77 257.941 198.925 256.836 199.185L249.816 180.335C249.166 178.32 246.176 167.465 242.666 155.375C245.331 153.295 248.841 152.45 253.196 152.255L254.301 156.22C256.186 162.525 257.161 168.05 258.981 174.355C259.111 174.94 260.281 178.775 260.801 180.27L261.711 182.935C263.076 179.425 264.246 175.33 266.001 170.195C267.366 166.1 269.251 159.535 270.356 155.05C270.486 154.465 271.396 152.255 271.656 151.605C276.011 151.93 278.936 152.775 280.301 153.945L282.056 154.855ZM311.349 191.19C305.954 192.295 292.954 195.285 285.024 198.795L284.569 178.385C283.204 178.45 280.604 178.905 280.604 178.905L280.539 169.48C281.189 169.48 283.789 169.09 284.374 169.025C284.309 163.24 284.114 156.155 284.049 150.89C285.284 150.955 290.094 150.76 291.394 150.76C292.499 150.76 300.624 150.305 309.984 149.72C310.959 152.255 310.764 153.75 310.764 154.79C310.764 155.57 310.764 156.155 310.244 158.95C304.979 159.405 304.199 159.405 303.549 159.47C300.689 159.665 300.039 159.795 295.294 159.99C295.294 162.59 295.294 165.255 295.359 167.79C299.194 167.27 305.499 166.49 308.944 165.775C309.594 168.05 310.049 171.625 309.594 175.005C301.014 176.565 300.039 176.825 295.554 177.345L295.749 184.625C299.779 183.52 305.369 182.285 310.764 181.44C311.609 184.495 311.544 189.175 311.349 191.19Z" fill="#254B60"/>
<rect x="-31" y="289.423" width="576.002" height="69.4082" fill="#F6CC7C"/>
<g clip-path="url(#clip1_291_842)">
<path d="M-29.4043 289.524H545.002V277.72C532.467 266.389 506.469 254.612 460.157 257.057C380.488 261.263 373.907 272.699 259.713 270.28C145.52 267.862 123.352 254.638 38.7466 264.865C4.7609 268.966 -16.54 273.961 -29.4043 278.509V289.524Z" fill="#F6CC7C"/>
</g>
<rect x="-31" y="266.316" width="508" height="57.4965" fill="#F6CC7C"/>
<g clip-path="url(#clip2_291_842)">
<path d="M-31 272.671H546.996V255.88C534.383 239.762 508.222 223.008 461.621 226.486C381.454 232.47 374.832 248.737 259.925 245.297C145.018 241.856 122.711 223.046 37.5768 237.593C3.37873 243.427 -18.0553 250.532 -31 257.002V272.671Z" fill="#F6CC7C"/>
<rect x="75.1055" y="249.535" width="60.6318" height="22.7372" fill="#F6CC7C"/>
</g>
</g>
<defs>
<linearGradient id="paint0_linear_291_842" x1="254" y1="0" x2="254" y2="300" gradientUnits="userSpaceOnUse">
<stop stop-color="#69CAFF"/>
<stop offset="1" stop-color="#2A567B"/>
</linearGradient>
<clipPath id="clip0_291_842">
<rect width="508" height="300" fill="white"/>
</clipPath>
<clipPath id="clip1_291_842">
<rect width="574.406" height="32.8093" fill="white" transform="translate(-29.4043 256.715)"/>
</clipPath>
<clipPath id="clip2_291_842">
<rect width="577.996" height="46.671" fill="white" transform="translate(-31 226)"/>
</clipPath>
</defs>
</svg>
