<svg width="35" height="52" viewBox="0 0 35 52" fill="none" xmlns="http://www.w3.org/2000/svg">
<path d="M17.051 25.5774C17.051 20.9169 20.8291 17.1387 25.4897 17.1387C30.1502 17.1387 33.9284 20.9169 33.9284 25.5774C33.9284 30.2379 30.1502 34.016 25.4897 34.016C20.8291 34.016 17.051 30.2379 17.051 25.5774Z" fill="#1ABCFE"/>
<path d="M0.173584 42.4543C0.173584 37.7938 3.95171 34.0156 8.61226 34.0156H17.0509V42.4543C17.0509 47.1149 13.2729 50.893 8.61226 50.893C3.95171 50.893 0.173584 47.1149 0.173584 42.4543Z" fill="#0ACF83"/>
<path d="M17.051 0.259766V17.1371H25.4897C30.1503 17.1371 33.9284 13.359 33.9284 8.69844C33.9284 4.03789 30.1503 0.259766 25.4897 0.259766H17.051Z" fill="#FF7262"/>
<path d="M0.173584 8.69845C0.173584 13.359 3.95171 17.1371 8.61226 17.1371H17.0509V0.259766H8.61226C3.95171 0.259766 0.173584 4.03789 0.173584 8.69845Z" fill="#F24E1E"/>
<path d="M0.173584 25.5774C0.173584 30.2379 3.95171 34.016 8.61226 34.016H17.0509V17.1387H8.61226C3.95171 17.1387 0.173584 20.9169 0.173584 25.5774Z" fill="#A259FF"/>
</svg>
