<svg width="54" height="53" viewBox="0 0 54 53" fill="none" xmlns="http://www.w3.org/2000/svg">
<g clip-path="url(#clip0_320_3068)">
<path d="M0.405029 13.3505C0.405029 6.13013 6.3779 0.265625 13.7368 0.265625H40.3982C47.7571 0.265625 53.73 6.12789 53.73 13.3505V39.5182C53.73 46.7408 47.7571 52.6031 40.3982 52.6031H13.7368C6.3779 52.6031 0.405029 46.7408 0.405029 39.5182V13.3505Z" fill="#FFDD33"/>
<path fill-rule="evenodd" clip-rule="evenodd" d="M35.8524 10.248H31.0149L35.0499 17.2044L26.1773 10.248H21.3397L25.7761 18.7438L16.5021 10.248H11.6646L16.5021 21.0709L11.6646 42.7142H16.5021L25.7761 19.5293L21.3397 42.7142H26.1773L35.0499 17.9786L31.0149 42.7142H35.8524L44.7251 15.665L35.8524 10.2592V10.248Z" fill="#1C1C1E"/>
</g>
<defs>
<clipPath id="clip0_320_3068">
<rect width="54" height="53" fill="white"/>
</clipPath>
</defs>
</svg>
