<svg width="45" height="45" viewBox="0 0 45 45" fill="none" xmlns="http://www.w3.org/2000/svg">
<g clip-path="url(#clip0_320_3078)">
<mask id="mask0_320_3078" style="mask-type:alpha" maskUnits="userSpaceOnUse" x="0" y="0" width="45" height="44">
<path fill-rule="evenodd" clip-rule="evenodd" d="M31.2355 43.7472C31.9292 44.0175 32.7203 44.0001 33.4205 43.6632L42.4893 39.2994C43.4423 38.8409 44.0483 37.8765 44.0483 36.8184V7.22947C44.0483 6.17143 43.4423 5.20699 42.4894 4.74845L33.4205 0.384567C32.5016 -0.0576275 31.4261 0.0506824 30.6195 0.637049C30.5043 0.720811 30.3946 0.814334 30.2916 0.917399L12.9304 16.7563L5.36825 11.016C4.66427 10.4816 3.67963 10.5254 3.02582 11.1202L0.600392 13.3265C-0.199341 14.0539 -0.200258 15.3121 0.59841 16.0408L7.15657 22.0239L0.59841 28.007C-0.200258 28.7357 -0.199341 29.9938 0.600392 30.7213L3.02582 32.9276C3.67963 33.5223 4.66427 33.5661 5.36825 33.0317L12.9304 27.2914L30.2916 43.1303C30.5662 43.4051 30.8887 43.6121 31.2355 43.7472ZM33.0429 12.0244L19.8698 22.0239L33.0429 32.0233V12.0244Z" fill="white"/>
</mask>
<g mask="url(#mask0_320_3078)">
<path d="M42.4898 4.75487L33.4138 0.384991C32.3633 -0.120822 31.1078 0.0925405 30.2834 0.917001L0.572164 28.0066C-0.226992 28.7352 -0.226073 29.9934 0.574146 30.7209L3.00105 32.9272C3.65526 33.5219 4.64052 33.5657 5.34489 33.0314L41.124 5.88854C42.3244 4.97793 44.0485 5.83405 44.0485 7.34073V7.23536C44.0485 6.17776 43.4426 5.21368 42.4898 4.75487Z" fill="#0065A9"/>
<g filter="url(#filter0_d_320_3078)">
<path d="M42.4898 39.2922L33.4138 43.6621C32.3633 44.168 31.1078 43.9545 30.2834 43.1301L0.572164 16.0405C-0.226992 15.3118 -0.226073 14.0536 0.574146 13.3262L3.00105 11.1199C3.65526 10.5252 4.64052 10.4814 5.34489 11.0157L41.124 38.1585C42.3244 39.0691 44.0485 38.213 44.0485 36.7064V36.8118C44.0485 37.8693 43.4426 38.8334 42.4898 39.2922Z" fill="#007ACC"/>
</g>
<g filter="url(#filter1_d_320_3078)">
<path d="M33.4141 43.6632C32.3632 44.1687 31.1077 43.9549 30.2832 43.1303C31.2991 44.1463 33.0362 43.4267 33.0362 41.99V2.05774C33.0362 0.620999 31.2991 -0.098528 30.2832 0.9174C31.1077 0.0928653 32.3632 -0.120799 33.4141 0.384567L42.4884 4.74846C43.4419 5.207 44.0483 6.17144 44.0483 7.22948V36.8184C44.0483 37.8765 43.4419 38.8409 42.4884 39.2995L33.4141 43.6632Z" fill="#1F9CF0"/>
</g>
<g style="mix-blend-mode:overlay" opacity="0.25">
<path fill-rule="evenodd" clip-rule="evenodd" d="M31.2089 43.7472C31.9026 44.0174 32.6937 44.0001 33.3939 43.6632L42.4627 39.2995C43.4157 38.8409 44.0217 37.8765 44.0217 36.8184V7.2295C44.0217 6.17141 43.4157 5.20698 42.4628 4.74843L33.3939 0.384567C32.475 -0.0576273 31.3995 0.0506826 30.5929 0.637045C30.4777 0.720812 30.3679 0.814335 30.265 0.917399L12.9038 16.7563L5.34163 11.016C4.6377 10.4816 3.65302 10.5255 2.99921 11.1202L0.573781 13.3264C-0.225953 14.0539 -0.226869 15.3121 0.571799 16.0407L7.12995 22.0239L0.571799 28.007C-0.226869 28.7357 -0.225953 29.9938 0.573781 30.7213L2.99921 32.9276C3.65302 33.5223 4.6377 33.5661 5.34163 33.0318L12.9038 27.2914L30.265 43.1304C30.5396 43.4051 30.8621 43.6121 31.2089 43.7472ZM33.0163 12.0244L19.8432 22.0239L33.0163 32.0234V12.0244Z" fill="url(#paint0_linear_320_3078)"/>
</g>
</g>
</g>
<defs>
<filter id="filter0_d_320_3078" x="-8.35995" y="2.30924" width="60.7416" height="49.9577" filterUnits="userSpaceOnUse" color-interpolation-filters="sRGB">
<feFlood flood-opacity="0" result="BackgroundImageFix"/>
<feColorMatrix in="SourceAlpha" type="matrix" values="0 0 0 0 0 0 0 0 0 0 0 0 0 0 0 0 0 0 127 0" result="hardAlpha"/>
<feOffset/>
<feGaussianBlur stdDeviation="4.16667"/>
<feColorMatrix type="matrix" values="0 0 0 0 0 0 0 0 0 0 0 0 0 0 0 0 0 0 0.25 0"/>
<feBlend mode="overlay" in2="BackgroundImageFix" result="effect1_dropShadow_320_3078"/>
<feBlend mode="normal" in="SourceGraphic" in2="effect1_dropShadow_320_3078" result="shape"/>
</filter>
<filter id="filter1_d_320_3078" x="21.9499" y="-8.22006" width="30.4318" height="60.487" filterUnits="userSpaceOnUse" color-interpolation-filters="sRGB">
<feFlood flood-opacity="0" result="BackgroundImageFix"/>
<feColorMatrix in="SourceAlpha" type="matrix" values="0 0 0 0 0 0 0 0 0 0 0 0 0 0 0 0 0 0 127 0" result="hardAlpha"/>
<feOffset/>
<feGaussianBlur stdDeviation="4.16667"/>
<feColorMatrix type="matrix" values="0 0 0 0 0 0 0 0 0 0 0 0 0 0 0 0 0 0 0.25 0"/>
<feBlend mode="overlay" in2="BackgroundImageFix" result="effect1_dropShadow_320_3078"/>
<feBlend mode="normal" in="SourceGraphic" in2="effect1_dropShadow_320_3078" result="shape"/>
</filter>
<linearGradient id="paint0_linear_320_3078" x1="21.9975" y1="0.113281" x2="21.9975" y2="43.9345" gradientUnits="userSpaceOnUse">
<stop stop-color="white"/>
<stop offset="1" stop-color="white" stop-opacity="0"/>
</linearGradient>
<clipPath id="clip0_320_3078">
<rect width="44.0483" height="44.0483" fill="white"/>
</clipPath>
</defs>
</svg>
