<svg width="603" height="476" viewBox="0 0 603 476" fill="none" xmlns="http://www.w3.org/2000/svg">
<mask id="mask0_389_2" style="mask-type:alpha" maskUnits="userSpaceOnUse" x="0" y="0" width="346" height="288">
<rect x="-0.5" y="-0.5" width="286.035" height="345" transform="matrix(0 -1 -1 0 345 286.035)" fill="#D9D9D9" stroke="#102E4A"/>
</mask>
<g mask="url(#mask0_389_2)">
<line y1="-7.5" x2="1024.06" y2="-7.5" transform="matrix(0.764827 -0.644236 -0.644236 -0.764827 -440.567 418.314)" stroke="#3B4B41" stroke-width="15"/>
<line y1="-7.5" x2="1024.06" y2="-7.5" transform="matrix(0.764827 -0.644236 -0.644236 -0.764827 -469.494 386.051)" stroke="#3B4B41" stroke-width="15"/>
<line y1="-7.5" x2="1024.06" y2="-7.5" transform="matrix(0.764827 -0.644236 -0.644236 -0.764827 -295.936 590.758)" stroke="#3B4B41" stroke-width="15"/>
<line y1="-7.5" x2="1024.06" y2="-7.5" transform="matrix(0.764827 -0.644236 -0.644236 -0.764827 -202.483 690.887)" stroke="#3B4B41" stroke-width="15"/>
<line y1="-7.5" x2="1024.06" y2="-7.5" transform="matrix(0.764827 -0.644236 -0.644236 -0.764827 -235.859 659.736)" stroke="#3B4B41" stroke-width="15"/>
<line y1="-7.5" x2="1024.06" y2="-7.5" transform="matrix(0.764827 -0.644236 -0.644236 -0.764827 -267.01 627.473)" stroke="#3B4B41" stroke-width="15"/>
<line y1="-7.5" x2="1024.06" y2="-7.5" transform="matrix(0.764827 -0.644236 -0.644236 -0.764827 -323.75 556.27)" stroke="#3B4B41" stroke-width="15"/>
<line y1="-7.5" x2="1024.06" y2="-7.5" transform="matrix(0.764827 -0.644236 -0.644236 -0.764827 -387.165 486.18)" stroke="#3B4B41" stroke-width="15"/>
<line y1="-7.5" x2="1024.06" y2="-7.5" transform="matrix(0.764827 -0.644236 -0.644236 -0.764827 -416.091 452.803)" stroke="#3B4B41" stroke-width="15"/>
<line y1="-7.5" x2="1024.06" y2="-7.5" transform="matrix(0.764827 -0.644236 -0.644236 -0.764827 -354.9 522.893)" stroke="#3B4B41" stroke-width="15"/>
</g>
<mask id="mask1_389_2" style="mask-type:alpha" maskUnits="userSpaceOnUse" x="257" y="188" width="346" height="288">
<rect x="-0.5" y="-0.5" width="286.035" height="345" transform="matrix(0 -1 -1 0 602 474.035)" fill="#D9D9D9" stroke="#102E4A"/>
</mask>
<g mask="url(#mask1_389_2)">
<line y1="-7.5" x2="1024.06" y2="-7.5" transform="matrix(0.764827 -0.644236 -0.644236 -0.764827 -183.567 606.314)" stroke="#3B4B41" stroke-width="15"/>
<line y1="-7.5" x2="1024.06" y2="-7.5" transform="matrix(0.764827 -0.644236 -0.644236 -0.764827 -212.494 574.051)" stroke="#3B4B41" stroke-width="15"/>
<line y1="-7.5" x2="1024.06" y2="-7.5" transform="matrix(0.764827 -0.644236 -0.644236 -0.764827 -38.9363 778.758)" stroke="#3B4B41" stroke-width="15"/>
<line y1="-7.5" x2="1024.06" y2="-7.5" transform="matrix(0.764827 -0.644236 -0.644236 -0.764827 54.5168 878.887)" stroke="#3B4B41" stroke-width="15"/>
<line y1="-7.5" x2="1024.06" y2="-7.5" transform="matrix(0.764827 -0.644236 -0.644236 -0.764827 21.1411 847.736)" stroke="#3B4B41" stroke-width="15"/>
<line y1="-7.5" x2="1024.06" y2="-7.5" transform="matrix(0.764827 -0.644236 -0.644236 -0.764827 -10.01 815.473)" stroke="#3B4B41" stroke-width="15"/>
<line y1="-7.5" x2="1024.06" y2="-7.5" transform="matrix(0.764827 -0.644236 -0.644236 -0.764827 -66.7498 744.27)" stroke="#3B4B41" stroke-width="15"/>
<line y1="-7.5" x2="1024.06" y2="-7.5" transform="matrix(0.764827 -0.644236 -0.644236 -0.764827 -130.165 674.18)" stroke="#3B4B41" stroke-width="15"/>
<line y1="-7.5" x2="1024.06" y2="-7.5" transform="matrix(0.764827 -0.644236 -0.644236 -0.764827 -159.091 640.803)" stroke="#3B4B41" stroke-width="15"/>
<line y1="-7.5" x2="1024.06" y2="-7.5" transform="matrix(0.764827 -0.644236 -0.644236 -0.764827 -97.8999 710.893)" stroke="#3B4B41" stroke-width="15"/>
</g>
</svg>
