<svg width="346" height="288" viewBox="0 0 346 288" fill="none" xmlns="http://www.w3.org/2000/svg">
<mask id="mask0_329_35" style="mask-type:alpha" maskUnits="userSpaceOnUse" x="0" y="0" width="346" height="288">
<rect x="-0.5" y="-0.5" width="286.035" height="345" transform="matrix(0 -1 -1 0 345 286.035)" fill="#D9D9D9" stroke="#102E4A"/>
</mask>
<g mask="url(#mask0_329_35)">
<line y1="-7.5" x2="1024.06" y2="-7.5" transform="matrix(0.764827 -0.644236 -0.644236 -0.764827 -440.567 418.315)" stroke="#3B4B41" stroke-width="15"/>
<line y1="-7.5" x2="1024.06" y2="-7.5" transform="matrix(0.764827 -0.644236 -0.644236 -0.764827 -469.494 386.051)" stroke="#3B4B41" stroke-width="15"/>
<line y1="-7.5" x2="1024.06" y2="-7.5" transform="matrix(0.764827 -0.644236 -0.644236 -0.764827 -295.936 590.758)" stroke="#3B4B41" stroke-width="15"/>
<line y1="-7.5" x2="1024.06" y2="-7.5" transform="matrix(0.764827 -0.644236 -0.644236 -0.764827 -202.483 690.887)" stroke="#3B4B41" stroke-width="15"/>
<line y1="-7.5" x2="1024.06" y2="-7.5" transform="matrix(0.764827 -0.644236 -0.644236 -0.764827 -235.859 659.737)" stroke="#3B4B41" stroke-width="15"/>
<line y1="-7.5" x2="1024.06" y2="-7.5" transform="matrix(0.764827 -0.644236 -0.644236 -0.764827 -267.01 627.473)" stroke="#3B4B41" stroke-width="15"/>
<line y1="-7.5" x2="1024.06" y2="-7.5" transform="matrix(0.764827 -0.644236 -0.644236 -0.764827 -323.75 556.27)" stroke="#3B4B41" stroke-width="15"/>
<line y1="-7.5" x2="1024.06" y2="-7.5" transform="matrix(0.764827 -0.644236 -0.644236 -0.764827 -387.165 486.18)" stroke="#3B4B41" stroke-width="15"/>
<line y1="-7.5" x2="1024.06" y2="-7.5" transform="matrix(0.764827 -0.644236 -0.644236 -0.764827 -416.091 452.803)" stroke="#3B4B41" stroke-width="15"/>
<line y1="-7.5" x2="1024.06" y2="-7.5" transform="matrix(0.764827 -0.644236 -0.644236 -0.764827 -354.9 522.893)" stroke="#3B4B41" stroke-width="15"/>
</g>
</svg>
