<svg width="508" height="300" viewBox="0 0 508 300" fill="none" xmlns="http://www.w3.org/2000/svg">
<rect width="508" height="300" fill="#0A2262"/>
<g clip-path="url(#clip0_291_835)">
<path d="M215.504 121.458L226.813 135.249L246.3 121.427L264.066 124.985L270.28 133.913L287.202 124.867L307.414 118.678L313.824 141.945L311.486 165.751L307.203 183.837L272.904 188.903L246.14 196.276L233.459 186.628L217.299 184.814L198.907 174.857L194.901 160.316L195.707 145.07L194.899 127.135L200.295 116.26L215.504 121.458Z" fill="white"/>
<path d="M278.61 154.643L255.513 131.085L255.508 131.296L232.156 154.184L209.059 130.625L208.587 177.278L255.041 177.738L255.073 177.74L301.517 178.202L301.986 131.728L278.61 154.643Z" fill="#FFF200"/>
</g>
<defs>
<clipPath id="clip0_291_835">
<rect width="119.531" height="93.5462" fill="white" transform="translate(184 120.749) rotate(-15.4031)"/>
</clipPath>
</defs>
</svg>
