<svg width="356" height="319" viewBox="0 0 356 319" fill="none" xmlns="http://www.w3.org/2000/svg">
<rect x="2" y="2" width="351.288" height="314.318" fill="#0A2262" stroke="black" stroke-width="4"/>
<g clip-path="url(#clip0_366_17)">
<path d="M125.208 91.2557L138.21 120.527L178.543 105.891L207.604 120.527L214.105 138.949L247.719 131.358L285.667 130.284V173.627L270.262 213.729L254.22 243L192.418 235.409H142.562L125.208 212.655L98.0951 201.806L71 175.793V148.706L79.6675 122.693L86.8237 91.2557L101.355 75L125.208 91.2557Z" fill="white"/>
<path d="M218.639 178.814L189.887 127.007L189.778 127.371L138.428 155.86L109.676 104.053L86.605 184.603L166.816 207.558L166.871 207.576L247.063 230.531L270.043 150.29L218.639 178.814Z" fill="#FFF200"/>
</g>
<defs>
<clipPath id="clip0_366_17">
<rect width="214.667" height="168" fill="white" transform="translate(71 75)"/>
</clipPath>
</defs>
</svg>
