<svg width="56" height="58" viewBox="0 0 56 58" fill="none" xmlns="http://www.w3.org/2000/svg">
<path d="M26.019 0.815627L0.520584 26.3777C-0.0134586 26.913 -0.123655 27.7399 0.13065 28.363C0.384954 28.9804 1.04331 29.4789 1.8006 29.4789H5.15743V55.2019C5.15743 56.7397 6.41484 58 7.94917 58H20.5856C21.2015 58 21.6989 57.5072 21.6989 56.8899V38.5408H34.3013V56.8899C34.3013 57.5073 34.8014 58 35.4146 58H48.0452C49.5795 58 50.851 56.7397 50.851 55.2019V29.4789H54.1994C54.9595 29.4789 55.6178 28.9776 55.8693 28.363C56.1237 27.7456 56.0135 26.9215 55.4794 26.3777L29.9752 0.815627C28.8901 -0.271876 27.1041 -0.271876 26.019 0.815627ZM27.5873 2.39591C27.8246 2.16369 28.1665 2.16369 28.4039 2.39591L53.2072 27.2497H49.7345C49.1185 27.2497 48.6269 27.751 48.6269 28.3656V55.1993C48.6269 55.5335 48.3726 55.7714 48.042 55.7714H36.5189V37.4281C36.5189 36.8107 36.0272 36.3123 35.4112 36.3123H20.5737C20.277 36.3123 19.9944 36.4284 19.7853 36.638C19.5763 36.8475 19.4604 37.1307 19.4604 37.4281V55.7713H7.93727C7.60384 55.7713 7.36649 55.5249 7.36649 55.1993V28.3655C7.36649 28.0681 7.25064 27.7849 7.04154 27.5754C6.83245 27.3658 6.54988 27.2497 6.25322 27.2497H2.79469L27.5873 2.39591Z" fill="#FEF7E5"/>
</svg>
