<svg width="146" height="146" viewBox="0 0 146 146" fill="none" xmlns="http://www.w3.org/2000/svg">
<path d="M52.3805 19.1452C63.9109 8.36871 81.8192 8.36871 93.3496 19.1452L95.1034 20.7843C98.4496 23.9118 102.468 26.2315 106.849 27.5657L109.146 28.265C124.243 32.8623 133.198 48.3714 129.63 63.7453L129.087 66.0837C128.052 70.5453 128.052 75.1848 129.087 79.6464L129.63 81.9848C133.198 97.3587 124.243 112.868 109.146 117.465L106.849 118.164C102.468 119.499 98.4497 121.818 95.1034 124.946L93.3496 126.585C81.8192 137.361 63.9109 137.361 52.3805 126.585L50.6267 124.946C47.2805 121.818 43.2626 119.499 38.881 118.164L36.5846 117.465C21.4867 112.868 12.5325 97.3587 16.1 81.9848L16.6426 79.6464C17.678 75.1848 17.678 70.5453 16.6426 66.0837L16.1 63.7453C12.5325 48.3714 21.4867 32.8623 36.5846 28.265L38.881 27.5657C43.2626 26.2315 47.2804 23.9118 50.6267 20.7844L52.3805 19.1452Z" fill="#FEF7E5"/>
<path d="M42.2585 85V79.6L57.4085 58.7H43.5085V51.8H69.8585V57.2L54.2585 78.1H69.9585V85H42.2585ZM73.0843 85V51.8H83.2843V64.7H93.2343V51.8H103.484V85H93.2343V71.6H83.2843V85H73.0843ZM45.0983 108V97.376H49.7863C52.9863 97.376 55.3863 98.832 55.3863 102.72C55.3863 106.48 52.8743 108 49.6263 108H45.0983ZM49.4983 105.84C51.2903 105.84 52.0103 105.008 52.0103 102.736V102.672C52.0103 100.368 51.3063 99.552 49.5463 99.552H48.3783V105.84H49.4983ZM56.3327 108V97.376H64.6527V99.648H59.5487V101.472H62.5887V103.776H59.5487V105.68H64.7807V108H56.3327ZM70.0326 108.208C66.9286 108.208 65.2966 106.512 65.0886 104.512H67.7606C67.9686 105.552 68.6086 106.112 70.0006 106.112C70.8326 106.112 71.3286 105.728 71.3286 105.12C71.3286 104.496 70.3206 104.288 69.0726 104C67.3766 103.6 65.3126 102.96 65.3126 100.784C65.3126 98.64 67.2006 97.152 69.8726 97.152C72.7686 97.152 74.2726 98.624 74.4326 100.8H71.7926C71.6166 99.76 71.1206 99.248 69.8566 99.248C69.0566 99.248 68.5766 99.648 68.5766 100.24C68.5766 100.976 69.7126 101.152 71.0086 101.44C72.6886 101.808 74.6086 102.4 74.6086 104.608C74.6086 106.816 72.8646 108.208 70.0326 108.208ZM75.5526 108V97.376H78.8166V108H75.5526ZM84.405 108.24C81.573 108.24 79.749 106.096 79.749 102.896C79.749 99.28 81.845 97.152 85.253 97.152C88.165 97.152 89.749 98.72 90.069 101.152H87.029C86.885 100.144 86.261 99.632 85.253 99.632C83.813 99.632 83.061 100.752 83.061 102.88V103.088C83.061 105.024 83.909 106.048 85.349 106.048C86.373 106.048 87.173 105.504 87.253 104.496H85.509V102.48H90.165V108H87.301V106.72C86.805 107.616 85.861 108.24 84.405 108.24ZM91.3327 108V97.376H94.9327L98.7567 103.312V97.376H101.317V108H98.1967L93.8927 101.232V108H91.3327Z" fill="#3B4B41"/>
</svg>
