<svg width="363" height="295" viewBox="0 0 363 295" fill="none" xmlns="http://www.w3.org/2000/svg">
<path d="M6.07996 174.328H55.2705L102.223 78.8014H45.7753C42.3652 78.8014 39.6372 76.0775 39.6372 72.6727C39.6372 69.2678 42.3652 66.5439 45.7753 66.5439H108.275L125.518 31.5006H23.7613C20.3513 31.5006 17.6233 28.7767 17.6233 25.3719C17.6233 21.9671 20.3513 19.2432 23.7613 19.2432H135.367H135.507C136.049 19.2432 136.538 19.3305 137.08 19.4702C137.22 19.4702 137.308 19.5575 137.395 19.6098C137.623 19.6971 137.885 19.7495 138.112 19.8718L359.572 128.339C359.572 128.339 359.625 128.339 359.66 128.391C360.289 128.706 360.867 129.16 361.356 129.683C361.409 129.736 361.496 129.823 361.531 129.858C361.986 130.399 362.335 130.976 362.598 131.691C362.598 131.744 362.685 131.779 362.685 131.831V131.971C362.685 132.058 362.773 132.198 362.825 132.285C362.965 132.861 363 133.455 363 134.031V134.345C362.948 135.061 362.738 135.725 362.458 136.406V136.546L286.214 291.648C286.214 291.648 286.162 291.7 286.162 291.735C285.672 292.678 284.955 293.481 284.011 294.057C283.924 294.109 283.836 294.144 283.749 294.197C283.346 294.424 282.892 294.651 282.402 294.773H282.315C282.262 294.773 282.227 294.773 282.175 294.825C281.685 294.965 281.143 295 280.653 295H280.566C280.024 295 279.499 294.86 278.957 294.738C278.782 294.686 278.607 294.598 278.415 294.563C278.275 294.511 278.1 294.476 277.96 294.389L244.7 278.116H56.412C53.0019 278.116 50.2739 275.392 50.2739 271.987C50.2739 268.582 53.0019 265.858 56.412 265.858H219.675L167.212 240.156H19.1654C15.7554 240.156 13.0274 237.432 13.0274 234.027C13.0274 230.623 15.7554 227.899 19.1654 227.899H142.137L57.7102 186.552H6.13809C2.72806 186.552 3.05176e-05 183.828 3.05176e-05 180.423C3.05176e-05 177.018 2.72803 174.294 6.13809 174.294L6.07996 174.328ZM345.507 143.039L255.833 165.79L282.519 271.235L345.507 143.039ZM203.406 166.419L246.827 155.419L339.088 132.004L147.533 38.189L203.317 166.436L203.406 166.419ZM243.924 168.846L201.395 179.619C200.905 179.759 200.363 179.794 199.874 179.794C197.461 179.794 195.222 178.414 194.225 176.092L176.773 135.95L73.7185 180.788L271.412 277.66L243.887 168.862L243.924 168.846ZM171.858 124.723L134.977 39.9683L71.9889 168.166L171.858 124.723ZM60.955 105.009H11.2542C7.84415 105.009 5.11612 107.733 5.11612 111.138C5.11612 114.543 7.84415 117.267 11.2542 117.267H60.955C64.3651 117.267 67.0931 114.543 67.0931 111.138C67.0931 107.733 64.3651 105.009 60.955 105.009ZM259.418 47.0388C259.418 43.634 256.69 40.9101 253.28 40.9101H238.066C234.656 40.9101 231.928 43.634 231.928 47.0388C231.928 50.4437 234.656 53.1676 238.066 53.1676H253.28C256.69 53.1676 259.418 50.4437 259.418 47.0388ZM220.072 6.12872C220.072 2.72388 217.344 0 213.934 0H146.012C142.602 0 139.874 2.72388 139.874 6.12872C139.874 9.53355 142.602 12.2574 146.012 12.2574H213.934C217.344 12.2574 220.072 9.53355 220.072 6.12872Z" fill="#3B4B41"/>
</svg>
